
<svg width="25" height="25" viewBox="0 0 25 25" fill="none" xmlns="http://www.w3.org/2000/svg">
<path d="M21.901 5H3.901C3.70209 5 3.51132 5.07902 3.37067 5.21967C3.23002 5.36032 3.151 5.55109 3.151 5.75V18.5C3.151 18.8978 3.30904 19.2794 3.59034 19.5607C3.87165 19.842 4.25318 20 4.651 20H21.151C21.5488 20 21.9304 19.842 22.2117 19.5607C22.493 19.2794 22.651 18.8978 22.651 18.5V5.75C22.651 5.55109 22.572 5.36032 22.4313 5.21967C22.2907 5.07902 22.0999 5 21.901 5ZM19.9726 6.5L12.901 12.9828L5.82944 6.5H19.9726ZM21.151 18.5H4.651V7.45531L12.3938 14.5531C12.5322 14.6801 12.7132 14.7506 12.901 14.7506C13.0888 14.7506 13.2698 14.6801 13.4082 14.5531L21.151 7.45531V18.5Z" fill="#ECECEC"/>
</svg>
