<svg width="22" height="22" viewBox="0 0 22 22" fill="none" xmlns="http://www.w3.org/2000/svg">
<path fill-rule="evenodd" clip-rule="evenodd" d="M10.9967 0.600006C8.397 0.601355 5.88256 1.52211 3.90297 3.19764C1.92338 4.87317 0.607734 7.1942 0.191278 9.74572C-0.225179 12.2972 0.284708 14.9129 1.62978 17.1249C2.97484 19.3369 5.06737 21.0011 7.5332 21.8198C8.07721 21.9208 8.28211 21.5836 8.28211 21.2969C8.28211 21.0103 8.27123 20.1791 8.2676 19.2703C5.22119 19.9284 4.57746 17.9848 4.57746 17.9848C4.08061 16.7227 3.36252 16.3909 3.36252 16.3909C2.36881 15.7166 3.43687 15.7292 3.43687 15.7292C4.53757 15.8067 5.11603 16.8525 5.11603 16.8525C6.09161 18.5167 7.67827 18.0353 8.30206 17.754C8.39998 17.049 8.68468 16.5694 8.99839 16.2972C6.56488 16.0231 4.00807 15.0891 4.00807 10.9169C3.99299 9.83489 4.39681 8.78849 5.13597 7.99422C5.02355 7.72016 4.64818 6.6131 5.24295 5.10938C5.24295 5.10938 6.16233 4.81729 8.25492 6.22545C10.0498 5.7374 11.9436 5.7374 13.7385 6.22545C15.8292 4.81729 16.7468 5.10938 16.7468 5.10938C17.3434 6.60949 16.968 7.71655 16.8556 7.99422C17.5971 8.78861 18.0018 9.83684 17.9853 10.9205C17.9853 15.1017 15.423 16.0231 12.9859 16.2917C13.3776 16.6307 13.7276 17.2924 13.7276 18.3093C13.7276 19.7662 13.7149 20.9381 13.7149 21.2969C13.7149 21.5872 13.9125 21.9262 14.4674 21.8198C16.9335 21.001 19.0263 19.3365 20.3713 17.1241C21.7164 14.9117 22.226 12.2957 21.8091 9.74394C21.3921 7.19219 20.0758 4.87113 18.0956 3.19589C16.1153 1.52065 13.6003 0.6005 11.0003 0.600006H10.9967Z" fill="white"/>
<path d="M4.19296 16.234C4.16939 16.2881 4.08235 16.3044 4.01163 16.2665C3.94091 16.2286 3.88833 16.1583 3.91371 16.1024C3.9391 16.0465 4.02433 16.0321 4.09505 16.07C4.16577 16.1078 4.22016 16.18 4.19296 16.234Z" fill="white"/>
<path d="M4.63735 16.7263C4.5998 16.7451 4.55684 16.7503 4.51582 16.7411C4.4748 16.7319 4.43828 16.7088 4.4125 16.6758C4.34178 16.6 4.32727 16.4955 4.38167 16.4486C4.43607 16.4017 4.534 16.4233 4.60472 16.4991C4.67544 16.5748 4.69175 16.6794 4.63735 16.7263Z" fill="white"/>
<path d="M5.06886 17.3519C5.00176 17.3988 4.88752 17.3519 4.82405 17.2582C4.8065 17.2413 4.79254 17.2212 4.78301 17.1989C4.77347 17.1766 4.76855 17.1526 4.76855 17.1283C4.76855 17.1041 4.77347 17.0801 4.78301 17.0578C4.79254 17.0355 4.8065 17.0153 4.82405 16.9985C4.89114 16.9534 5.00539 16.9985 5.06886 17.0905C5.13232 17.1824 5.13414 17.305 5.06886 17.3519V17.3519Z" fill="white"/>
<path d="M5.65442 17.9577C5.59458 18.0244 5.47309 18.0064 5.37335 17.9163C5.27362 17.8261 5.25004 17.7035 5.30988 17.6386C5.36972 17.5737 5.49122 17.5917 5.59458 17.6801C5.69794 17.7684 5.71789 17.8928 5.65442 17.9577V17.9577Z" fill="white"/>
<path d="M6.47581 18.3111C6.44861 18.3959 6.3253 18.4337 6.20199 18.3977C6.07869 18.3616 5.99709 18.2606 6.02066 18.1741C6.04423 18.0875 6.16935 18.0479 6.29447 18.0875C6.41959 18.1272 6.49938 18.2228 6.47581 18.3111Z" fill="white"/>
<path d="M7.37199 18.3724C7.37199 18.4608 7.27045 18.5365 7.13989 18.5383C7.00933 18.5401 6.90234 18.468 6.90234 18.3796C6.90234 18.2913 7.00389 18.2156 7.13445 18.2137C7.26501 18.2119 7.37199 18.2823 7.37199 18.3724Z" fill="white"/>
<path d="M8.20615 18.2336C8.22247 18.3219 8.1318 18.4139 8.00124 18.4355C7.87068 18.4572 7.75644 18.4049 7.74012 18.3183C7.7238 18.2318 7.81809 18.138 7.94503 18.1146C8.07196 18.0912 8.18983 18.1453 8.20615 18.2336Z" fill="white"/>
</svg>
