<svg width="24" height="18" viewBox="0 0 24 18" fill="none" xmlns="http://www.w3.org/2000/svg">
<path d="M19.7624 1.65896C18.3347 0.983674 16.8037 0.486157 15.2029 0.201208C15.1738 0.195708 15.1446 0.209451 15.1296 0.236939C14.9327 0.597934 14.7146 1.06888 14.5619 1.43904C12.8402 1.17334 11.1273 1.17334 9.44091 1.43904C9.28814 1.06065 9.06212 0.597934 8.86434 0.236939C8.84932 0.210369 8.8202 0.196625 8.79105 0.201208C7.19119 0.485246 5.66019 0.982764 4.23161 1.65896C4.21924 1.66445 4.20864 1.67362 4.20161 1.68553C1.29764 6.15772 0.502118 10.52 0.892373 14.8282C0.894139 14.8493 0.905617 14.8694 0.92151 14.8822C2.83747 16.3326 4.6934 17.2132 6.51487 17.7968C6.54402 17.806 6.5749 17.795 6.59345 17.7702C7.02432 17.1637 7.4084 16.5242 7.73772 15.8516C7.75715 15.8122 7.7386 15.7655 7.69888 15.7499C7.08966 15.5117 6.50957 15.2212 5.95155 14.8914C5.90742 14.8648 5.90388 14.7998 5.94449 14.7686C6.06191 14.6779 6.17937 14.5835 6.2915 14.4882C6.31178 14.4708 6.34005 14.4672 6.3639 14.4782C10.0298 16.2035 13.9986 16.2035 17.6212 14.4782C17.6451 14.4663 17.6733 14.4699 17.6945 14.4873C17.8067 14.5826 17.9241 14.6779 18.0424 14.7686C18.083 14.7998 18.0804 14.8648 18.0362 14.8914C17.4782 15.2276 16.8981 15.5117 16.288 15.749C16.2483 15.7646 16.2306 15.8122 16.2501 15.8516C16.5864 16.5232 16.9705 17.1628 17.3934 17.7693C17.4111 17.795 17.4429 17.806 17.472 17.7968C19.3023 17.2132 21.1583 16.3326 23.0742 14.8822C23.091 14.8694 23.1016 14.8502 23.1034 14.8291C23.5704 9.84836 22.3211 5.52186 19.7915 1.68644C19.7853 1.67362 19.7747 1.66445 19.7624 1.65896ZM8.28516 12.2049C7.18147 12.2049 6.27206 11.1604 6.27206 9.87769C6.27206 8.59493 7.16383 7.55043 8.28516 7.55043C9.41529 7.55043 10.3159 8.60411 10.2982 9.87769C10.2982 11.1604 9.40645 12.2049 8.28516 12.2049ZM15.7282 12.2049C14.6246 12.2049 13.7152 11.1604 13.7152 9.87769C13.7152 8.59493 14.6069 7.55043 15.7282 7.55043C16.8584 7.55043 17.759 8.60411 17.7413 9.87769C17.7413 11.1604 16.8584 12.2049 15.7282 12.2049Z" fill="white"/>
</svg>
