<svg width="18" height="18" viewBox="0 0 18 18" fill="none" xmlns="http://www.w3.org/2000/svg">
<path d="M16.501 0.200012H1.49942C1.15484 0.200012 0.82438 0.336894 0.580729 0.580546C0.337077 0.824197 0.200195 1.15466 0.200195 1.49923V16.5008C0.200195 16.8454 0.337077 17.1758 0.580729 17.4195C0.82438 17.6631 1.15484 17.8 1.49942 17.8H16.501C16.8455 17.8 17.176 17.6631 17.4197 17.4195C17.6633 17.1758 17.8002 16.8454 17.8002 16.5008V1.49923C17.8002 1.15466 17.6633 0.824197 17.4197 0.580546C17.176 0.336894 16.8455 0.200012 16.501 0.200012ZM5.44597 15.193H2.79986V6.78779H5.44597V15.193ZM4.12108 5.62301C3.82093 5.62132 3.528 5.53076 3.27927 5.36274C3.03053 5.19473 2.83714 4.9568 2.72351 4.67898C2.60987 4.40117 2.58107 4.09591 2.64075 3.80175C2.70043 3.50758 2.84592 3.23768 3.05884 3.02612C3.27177 2.81456 3.54259 2.67081 3.83714 2.61302C4.13168 2.55523 4.43674 2.58598 4.71383 2.7014C4.99091 2.81682 5.22759 3.01173 5.394 3.26154C5.56041 3.51135 5.6491 3.80485 5.64886 4.10501C5.65169 4.30597 5.61404 4.50544 5.53814 4.69154C5.46224 4.87763 5.34965 5.04654 5.20708 5.18819C5.06451 5.32985 4.89488 5.44135 4.70831 5.51606C4.52173 5.59076 4.32202 5.62713 4.12108 5.62301ZM15.1993 15.2003H12.5544V10.6085C12.5544 9.25423 11.9788 8.83623 11.2356 8.83623C10.451 8.83623 9.68097 9.42779 9.68097 10.6427V15.2003H7.03486V6.7939H9.57953V7.95868H9.61375C9.8692 7.44168 10.7639 6.55801 12.1291 6.55801C13.6055 6.55801 15.2005 7.43435 15.2005 10.001L15.1993 15.2003Z" fill="white"/>
</svg>
