<svg width="19" height="16" viewBox="0 0 19 16" fill="none" xmlns="http://www.w3.org/2000/svg">
<path d="M6.07178 15.44C13.1678 15.44 17.0478 9.56001 17.0478 4.464C17.0478 4.296 17.0478 4.128 17.0398 3.968C17.7918 3.424 18.4478 2.744 18.9678 1.968C18.2798 2.272 17.5358 2.48 16.7518 2.576C17.5518 2.096 18.1598 1.344 18.4478 0.440004C17.7038 0.880004 16.8798 1.2 15.9998 1.376C15.2958 0.624004 14.2958 0.160004 13.1838 0.160004C11.0558 0.160004 9.32778 1.888 9.32778 4.016C9.32778 4.32 9.35978 4.616 9.43178 4.896C6.22378 4.736 3.38378 3.2 1.47978 0.864004C1.15178 1.432 0.959782 2.096 0.959782 2.8C0.959782 4.136 1.63978 5.32 2.67978 6.00801C2.04778 5.99201 1.45578 5.81601 0.935781 5.52801C0.935781 5.54401 0.935781 5.56 0.935781 5.576C0.935781 7.448 2.26378 9.00001 4.03178 9.36001C3.71178 9.44801 3.36778 9.496 3.01578 9.496C2.76778 9.496 2.52778 9.47201 2.28778 9.42401C2.77578 10.96 4.19978 12.072 5.88778 12.104C4.56778 13.136 2.90378 13.752 1.09578 13.752C0.783781 13.752 0.479781 13.736 0.175781 13.696C1.86378 14.8 3.89578 15.44 6.07178 15.44Z" fill="white"/>
</svg>
